<svg width="800px" height="800px" viewBox="0 0 64 64"
    xmlns="http://www.w3.org/2000/svg">
    <defs>
        <style>.cls-1{fill:none;stroke:#000000;stroke-linecap:round;stroke-linejoin:round;stroke-width:2px;}</style>
    </defs>
    <title/>
    <g data-name="Layer 19" id="Layer_19">
        <polyline class="cls-1" points="14.52 28.67 14.52 62.22 11.12 62.22 11.12 28.67"/>
        <polyline class="cls-1" points="11.12 11.39 11.12 1.66 14.52 1.66 14.52 11.39"/>
        <polyline class="cls-1" points="33.71 57.29 33.71 62.22 30.31 62.22 30.31 57.29"/>
        <polyline class="cls-1" points="30.31 40.02 30.31 1.66 33.71 1.66 33.71 40.02"/>
        <polyline class="cls-1" points="52.9 35.75 52.9 62.22 49.49 62.22 49.49 35.75"/>
        <polyline class="cls-1" points="49.49 18.64 49.49 1.66 52.9 1.66 52.9 18.64"/>
        <circle class="cls-1" cx="12.62" cy="20.03" r="8.64"/>
        <circle class="cls-1" cx="12.62" cy="20.03" r="5.12"/>
        <circle class="cls-1" cx="32.01" cy="48.66" r="8.64"/>
        <circle class="cls-1" cx="32.01" cy="48.66" r="3.12"/>
        <circle class="cls-1" cx="51.2" cy="27.28" r="8.64"/>
        <circle class="cls-1" cx="51.2" cy="27.28" r="4.69"/>
    </g>
</svg>